<?xml version="1.0" standalone="no"?>
<!DOCTYPE svg PUBLIC "-//W3C//DTD SVG 1.1//EN" "http://www.w3.org/Graphics/SVG/1.1/DTD/svg11.dtd" >
<svg xmlns="http://www.w3.org/2000/svg">
<metadata>Generated by IcoMoon</metadata>
<defs>
<font id="icon" horiz-adv-x="1024">
<font-face units-per-em="1024" ascent="960" descent="-64" />
<missing-glyph horiz-adv-x="1024" />
<glyph unicode="&#x20;" horiz-adv-x="512" d="" />
<glyph unicode="&#xe900;" glyph-name="shape-exclude" d="M85.333 736c0 76.583 62.083 138.667 138.667 138.667v0h341.333c0.084 0 0.184 0 0.284 0 28.829 0 55.59-8.852 77.714-23.986l-0.473 0.305c16.299-11.008 30.165-25.429 40.533-42.197 10.965-17.749 18.048-38.187 20.053-60.117v-0.256c0.351-3.717 0.552-8.041 0.555-12.412v-96.004h96c0.071 0 0.155 0 0.238 0 60.9 0 112.611-39.344 131.102-94.001l0.286-0.975c4.565-13.739 7.040-28.416 7.040-43.691v-341.333c0-76.583-62.083-138.667-138.667-138.667v0h-341.333c-0.051 0-0.111 0-0.171 0-76.489 0-138.496 62.007-138.496 138.496 0 0.060 0 0.12 0 0.18v-0.009 96h-96c-0.088 0-0.191 0-0.295 0-26.841 0-51.889 7.673-73.072 20.945l0.577-0.337-0.427 0.256c-18.305 11.544-33.333 26.641-44.459 44.428l-0.341 0.585c-10.781 17.166-17.97 37.622-20.012 59.572l-0.041 0.545-0.043 0.256c-0.352 3.718-0.553 8.042-0.555 12.413v341.336zM149.333 616.107v-80.213l274.773 274.773h-80.213l-194.56-194.56zM253.44 810.667h-29.44c-41.237 0-74.667-33.429-74.667-74.667v0-29.44l104.107 104.107zM514.56 810.667l-365.227-365.227v-50.773c0-8.789 1.536-17.237 4.309-25.088l172.373 172.373c13.864 44.104 47.919 78.145 91.048 91.722l0.984 0.267 172.373 172.373c-7.467 2.755-16.091 4.35-25.087 4.352h-50.774zM635.733 761.088l-121.173-121.088h80.171l45.269 45.227v50.773c0 8.789-1.536 17.237-4.309 25.088zM320 445.397l-121.088-121.088c7.851-2.773 16.299-4.309 25.088-4.309h50.773l45.227 45.227v80.213zM384 168.064v-8.064c0-19.968 7.851-38.101 20.608-51.499l147.499 147.499h-80.213l-87.893-87.893zM704 407.893l147.499 147.499c-13.334 12.756-31.451 20.608-51.403 20.608-0.034 0-0.067 0-0.101 0h-8.102l-87.893-87.893v-80.213zM874.667 488.107l-402.773-402.773h80.213l322.56 322.56v80.213zM874.667 317.44l-232.107-232.107h80.213l151.893 151.893v80.213zM873.216 145.28c-6.109-29.52-28.976-52.387-58.012-58.412l-0.484-0.084 58.496 58.496zM384 501.333v-181.333h181.333c41.237 0 74.667 33.429 74.667 74.667v0 181.333h-181.333c-41.237 0-74.667-33.429-74.667-74.667v0z" />
<glyph unicode="&#xe901;" glyph-name="checkmark" d="M193.28 406.613c-5.699 5.321-13.376 8.588-21.815 8.588-17.673 0-32-14.327-32-32 0-8.44 3.267-16.116 8.606-21.834l-0.017 0.019 192-192c5.789-5.782 13.784-9.359 22.613-9.359s16.824 3.576 22.614 9.359v0l469.333 469.333c5.321 5.699 8.588 13.376 8.588 21.815 0 17.673-14.327 32-32 32-8.44 0-16.116-3.267-21.834-8.606l0.019 0.017-446.72-446.72-169.387 169.387z" />
<glyph unicode="&#xe902;" glyph-name="dark-theme" d="M512 21.333c235.648 0 426.667 191.019 426.667 426.667s-191.019 426.667-426.667 426.667-426.667-191.019-426.667-426.667 191.019-426.667 426.667-426.667zM512 85.333v725.333c200.295 0 362.667-162.371 362.667-362.667s-162.371-362.667-362.667-362.667v0z" />
<glyph unicode="&#xe903;" glyph-name="filter-dismiss" d="M981.333 640c0-129.603-105.064-234.667-234.667-234.667s-234.667 105.064-234.667 234.667v0c0 129.603 105.064 234.667 234.667 234.667s234.667-105.064 234.667-234.667v0zM676.437 740.437c-3.865 3.865-9.206 6.256-15.104 6.256-11.797 0-21.36-9.563-21.36-21.36 0-5.898 2.391-11.239 6.256-15.104v0l70.272-70.229-70.272-70.229c-3.865-3.865-6.256-9.206-6.256-15.104 0-11.797 9.563-21.36 21.36-21.36 5.898 0 11.239 2.391 15.104 6.256v0l70.229 70.272 70.229-70.272c3.865-3.865 9.206-6.256 15.104-6.256 11.797 0 21.36 9.563 21.36 21.36 0 5.898-2.391 11.239-6.256 15.104l-70.272 70.229 70.272 70.229c3.865 3.865 6.256 9.206 6.256 15.104 0 11.797-9.563 21.36-21.36 21.36-5.898 0-11.239-2.391-15.104-6.256l-70.229-70.272-70.229 70.272zM569.429 426.667c-21.876 18.287-40.579 39.378-55.83 62.912l-0.661 1.088h-192.939c-17.673 0-32-14.327-32-32s14.327-32 32-32v0h249.429zM469.333 640c0 22.016 2.56 43.435 7.424 64h-284.757c-17.673 0-32-14.327-32-32s14.327-32 32-32v0h277.333zM576 277.333c17.673 0 32-14.327 32-32s-14.327-32-32-32v0h-128c-17.673 0-32 14.327-32 32s14.327 32 32 32v0h128z" />
<glyph unicode="&#xe904;" glyph-name="filter" d="M576 277.333c17.673 0 32-14.327 32-32s-14.327-32-32-32v0h-128c-17.673 0-32 14.327-32 32s14.327 32 32 32v0h128zM704 490.667c17.673 0 32-14.327 32-32s-14.327-32-32-32v0h-384c-17.673 0-32 14.327-32 32s14.327 32 32 32v0h384zM832 704c17.673 0 32-14.327 32-32s-14.327-32-32-32v0h-640c-17.673 0-32 14.327-32 32s14.327 32 32 32v0h640z" />
<glyph unicode="&#xe905;" glyph-name="search" d="M426.667 842.667c0.012 0 0.025 0 0.039 0 170.84 0 309.333-138.493 309.333-309.333 0-74.155-26.093-142.215-69.599-195.501l0.441 0.557 209.067-209.067c5.835-5.798 9.447-13.828 9.447-22.702 0-17.673-14.327-32-32-32-7.192 0-13.829 2.372-19.173 6.377l0.083-0.060-3.584 3.115-209.109 209.067c-52.721-43.042-120.763-69.12-194.897-69.12-170.84 0-309.333 138.493-309.333 309.333 0 170.823 138.466 309.306 309.283 309.333h0.003zM426.667 778.667c-135.494 0-245.333-109.839-245.333-245.333s109.839-245.333 245.333-245.333v0c135.494 0 245.333 109.839 245.333 245.333s-109.839 245.333-245.333 245.333v0z" />
<glyph unicode="&#xe906;" glyph-name="tag" d="M842.667 874.667c53.019 0 96-42.981 96-96v0-233.045c-0.002-38.291-15.524-72.956-40.619-98.048l-362.667-362.795c-25.121-25.065-59.796-40.565-98.091-40.565-38.274 0-72.931 15.482-98.051 40.526l0.003-0.003-190.379 190.037c-25.129 25.1-40.674 59.79-40.674 98.112 0 38.258 15.493 72.897 40.548 97.986l362.665 363.092c25.081 25.126 59.746 40.677 98.043 40.704h233.179zM842.667 810.667h-233.173c-19.84 0-38.827-7.893-52.864-21.888l-363.179-363.648c-13.159-13.45-21.278-31.876-21.278-52.199 0-20.643 8.377-39.329 21.917-52.845l190.337-190.038c13.54-13.488 32.218-21.827 52.843-21.827s39.303 8.339 52.845 21.829l362.665 362.793c13.515 13.505 21.877 32.164 21.888 52.777v233.047c0 17.673-14.327 32-32 32v0zM725.333 725.248c35.346 0 64-28.654 64-64s-28.654-64-64-64v0c-35.346 0-64 28.654-64 64s28.654 64 64 64v0z" />
<glyph unicode="&#xe907;" glyph-name="archive" d="M821.333 832c41.216 0 74.667-33.451 74.667-74.667v-85.333c0-29.781-17.408-55.467-42.667-67.456v-423.211c0-88.366-71.634-160-160-160v0h-362.667c-88.366 0-160 71.634-160 160v0 423.168c-25.431 12.268-42.667 37.852-42.667 67.462 0 0.013 0 0.026 0 0.039v-0.002 85.333c0 41.216 33.451 74.667 74.667 74.667h618.667zM789.333 597.333h-554.667v-416c0-53.019 42.981-96 96-96v0h362.667c53.019 0 96 42.981 96 96v0 416zM426.667 469.333h170.667c17.669-0.006 31.99-14.33 31.99-32 0-16.135-11.941-29.48-27.468-31.682l-0.17-0.020-4.352-0.299h-170.667c-17.669 0.006-31.99 14.33-31.99 32 0 16.135 11.941 29.48 27.468 31.682l0.17 0.020 4.352 0.299zM821.333 768h-618.667c-5.891 0-10.667-4.776-10.667-10.667v0-85.333c0-5.888 4.779-10.667 10.667-10.667h618.667c5.891 0 10.667 4.776 10.667 10.667v0 85.333c0 5.891-4.776 10.667-10.667 10.667v0z" />
<glyph unicode="&#xe908;" glyph-name="chevron-left" d="M662.613 779.947c5.782-5.789 9.359-13.784 9.359-22.613s-3.576-16.824-9.359-22.614v0l-286.72-286.72 286.72-286.72c6.274-5.858 10.185-14.178 10.185-23.412 0-17.673-14.327-32-32-32-9.234 0-17.554 3.911-23.394 10.166l-0.017 0.019-309.333 309.333c-5.782 5.789-9.359 13.784-9.359 22.613s3.576 16.824 9.359 22.614v0l309.333 309.333c5.789 5.782 13.784 9.359 22.613 9.359s16.824-3.576 22.614-9.359v0z" />
<glyph unicode="&#xe909;" glyph-name="info" d="M512 874.709c235.691 0 426.752-191.061 426.752-426.752 0-235.648-191.061-426.709-426.752-426.709s-426.752 191.061-426.752 426.709c0 235.691 191.061 426.752 426.752 426.752zM512 810.709c-1.169 0.014-2.551 0.021-3.934 0.021-200.342 0-362.752-162.41-362.752-362.752s162.41-362.752 362.752-362.752c1.383 0 2.765 0.008 4.144 0.023l-0.21-0.002c197.935 3.133 357.188 164.323 357.188 362.709s-159.253 359.577-356.894 362.706l-0.294 0.004zM511.829 512.043c0.012 0 0.027 0 0.041 0 16.138 0 29.486-11.946 31.683-27.478l0.020-0.17 0.299-4.352 0.128-234.752c-0.006-17.669-14.33-31.99-32-31.99-16.135 0-29.48 11.941-31.682 27.468l-0.020 0.17-0.299 4.309-0.128 234.752c0 17.673 14.327 32 32 32v0zM512 661.205c0.402 0.014 0.874 0.021 1.348 0.021 23.541 0 42.624-19.083 42.624-42.624s-19.083-42.624-42.624-42.624c-0.474 0-0.947 0.008-1.417 0.023l0.069-0.002c-22.953 0.749-41.276 19.536-41.276 42.603s18.322 41.853 41.207 42.601l0.069 0.002z" />
<glyph unicode="&#xe90a;" glyph-name="arrow-counterclockwise" d="M512 768c176.707-0.032 319.945-143.288 319.945-320 0-176.731-143.269-320-320-320s-320 143.269-320 320c0 16.683 1.277 33.067 3.737 49.061l-0.226-1.786c2.859 19.371-11.307 38.059-30.891 38.059-0.173 0.003-0.378 0.005-0.583 0.005-15.752 0-28.843-11.397-31.475-26.395l-0.028-0.192c-2.882-17.675-4.529-38.048-4.529-58.805 0-212.077 171.923-384 384-384s384 171.923 384 384c0 212.077-171.923 384-384 384-98.499 0-188.336-37.086-256.31-98.056l0.359 0.317v44.459c0 17.673-14.327 32-32 32s-32-14.327-32-32v0-128c0-17.664 14.336-32 32-32h128c17.673 0 32 14.327 32 32s-14.327 32-32 32v0h-57.6c56.752 52.876 133.139 85.334 217.106 85.334 0.174 0 0.347 0 0.521 0h-0.027z" />
<glyph unicode="&#xe90b;" glyph-name="arrow-clockwise" d="M512 768c-176.707-0.032-319.945-143.288-319.945-320 0-176.731 143.269-320 320-320s320 143.269 320 320c0 16.683-1.277 33.067-3.737 49.061l0.226-1.786c-2.859 19.371 11.307 38.059 30.891 38.059 15.787 0 29.696-10.923 32.085-26.581 2.882-17.675 4.529-38.048 4.529-58.805 0-212.077-171.923-384-384-384s-384 171.923-384 384c0 212.077 171.923 384 384 384 98.499 0 188.336-37.086 256.31-98.056l-0.359 0.317v44.459c0 17.673 14.327 32 32 32s32-14.327 32-32v0-128c0-17.673-14.327-32-32-32v0h-128c-17.673 0-32 14.327-32 32s14.327 32 32 32v0h57.6c-56.759 52.877-133.151 85.334-217.123 85.334-0.168 0-0.335 0-0.503 0h0.026z" />
<glyph unicode="&#xe90c;" glyph-name="heart" d="M546.987 721.92l-34.987-35.072-35.157 35.157c-41.501 41.495-98.831 67.16-162.155 67.16-126.659 0-229.336-102.677-229.336-229.336 0-63.335 25.674-120.673 67.182-162.176l336.853-336.853c5.789-5.782 13.784-9.359 22.613-9.359s16.824 3.576 22.614 9.359l337.152 336.938c41.448 41.499 67.080 98.801 67.080 162.091 0 63.311-25.65 120.631-67.124 162.135l0.002-0.002c-41.545 41.572-98.954 67.287-162.368 67.287s-120.823-25.715-162.367-67.285l-0.001-0.001zM826.368 442.88l-314.368-314.24-314.24 314.24c-30.292 29.98-49.049 71.564-49.049 117.529 0 91.311 74.022 165.333 165.333 165.333 45.965 0 87.549-18.757 117.515-49.035l57.955-57.913c5.792-5.799 13.798-9.386 22.641-9.386 9.095 0 17.303 3.794 23.129 9.886l0.011 0.012 56.917 57.387c29.475 27.492 69.162 44.37 112.791 44.37 91.429 0 165.547-74.118 165.547-165.547 0-43.555-16.82-83.181-44.319-112.738l0.093 0.101z" />
<glyph unicode="&#xe90d;" glyph-name="star" d="M460.288 827.605c21.12 42.837 82.176 42.837 103.296 0l100.608-203.819 224.981-32.683c47.232-6.869 66.091-64.939 31.915-98.261l-162.816-158.72 38.443-224c8.107-47.061-41.301-82.944-83.584-60.757l-201.216 105.813-201.173-105.813c-42.24-22.187-91.648 13.653-83.627 60.757l38.443 224-162.773 158.72c-34.176 33.28-15.317 91.392 31.915 98.261l224.981 32.683 100.608 203.819zM511.915 787.669l-96.341-195.243c-8.392-16.718-24.225-28.63-43.033-31.449l-0.317-0.039-215.467-31.317 155.904-151.979c13.568-13.227 19.755-32.299 16.555-50.987l-36.779-214.613 192.683 101.333c7.774 4.172 17.009 6.623 26.816 6.623s19.042-2.451 27.125-6.774l-0.309 0.151 192.683-101.291-36.779 214.571c-0.529 2.931-0.831 6.305-0.831 9.749 0 16.16 6.655 30.766 17.374 41.227l0.012 0.011 155.904 151.979-215.467 31.317c-19.124 2.858-34.958 14.77-43.198 31.157l-0.151 0.331-96.384 195.243z" />
<glyph unicode="&#xe90e;" glyph-name="settings" d="M512.512 864c31.317-0.341 62.507-3.968 93.099-10.795 13.262-3.035 23.264-14.004 24.818-27.543l0.014-0.148 7.253-65.152c3.405-29.675 28.38-52.507 58.687-52.507 8.51 0 16.599 1.8 23.908 5.040l-0.377-0.149 59.776 26.24c3.796 1.715 8.231 2.715 12.898 2.715 9.211 0 17.514-3.892 23.352-10.121l0.016-0.018c41.863-44.637 74.145-98.794 93.226-158.833l0.812-2.959c0.907-2.828 1.429-6.082 1.429-9.457 0-10.517-5.074-19.849-12.907-25.682l-0.085-0.061-52.992-39.083c-14.648-10.847-24.040-28.071-24.040-47.488s9.392-36.641 23.881-47.375l0.159-0.113 53.035-39.040c7.945-5.892 13.038-15.239 13.038-25.776 0-3.379-0.524-6.635-1.494-9.693l0.062 0.227c-19.9-62.996-52.181-117.151-94.248-162.019l0.211 0.227c-5.855-6.249-14.159-10.142-23.372-10.142-4.634 0-9.037 0.985-13.013 2.757l0.203-0.081-60.032 26.325c-6.961 3.132-15.090 4.956-23.644 4.956-30.266 0-55.199-22.836-58.507-52.218l-0.025-0.268-7.211-65.109c-1.545-13.542-11.347-24.424-24.186-27.56l-0.219-0.045c-28.233-7.007-60.644-11.028-93.995-11.028s-65.762 4.020-96.776 11.602l2.782-0.575c-13.058 3.181-22.86 14.063-24.392 27.458l-0.014 0.147-7.168 65.024c-3.469 29.564-28.374 52.285-58.586 52.285-8.533 0-16.643-1.813-23.965-5.074l0.375 0.149-59.989-26.283c-3.78-1.699-8.195-2.689-12.84-2.689-9.219 0-17.528 3.899-23.368 10.138l-0.017 0.018c-41.876 44.687-74.16 98.902-93.227 159.002l-0.811 2.961c-0.909 2.831-1.432 6.087-1.432 9.466 0 10.537 5.093 19.885 12.951 25.715l0.086 0.061 53.035 39.083c14.665 10.838 24.070 28.065 24.070 47.488s-9.405 36.65-23.91 47.375l-0.16 0.113-53.035 38.997c-7.925 5.893-13.003 15.229-13.003 25.751 0 3.388 0.527 6.654 1.502 9.718l-0.062-0.227c19.894 62.998 52.176 117.154 94.248 162.019l-0.211-0.227c5.855 6.247 14.157 10.139 23.368 10.139 4.668 0 9.102-0.999 13.101-2.796l-0.202 0.081 59.733-26.24c6.935-3.085 15.026-4.882 23.537-4.882 30.36 0 55.38 22.862 58.784 52.309l0.026 0.275 7.253 65.109c1.556 13.715 11.583 24.709 24.66 27.692l0.215 0.041c30.592 6.784 61.867 10.368 93.909 10.752zM512.512 800c-20.592-0.249-40.565-2.055-60.048-5.306l2.278 0.314-4.651-41.685c-7.075-61.905-59.166-109.546-122.384-109.546-17.836 0-34.787 3.792-50.090 10.615l0.783-0.312-38.315 16.811c-23.429-28.259-42.84-60.962-56.687-96.45l-0.827-2.409 34.048-25.045c30.545-22.63 50.129-58.554 50.129-99.051s-19.584-76.42-49.797-98.816l-0.332-0.235-34.091-25.088c13.653-35.925 33.109-69.376 57.515-99.072l38.613 16.939c14.49 6.492 31.405 10.273 49.202 10.273 63.053 0 115.021-47.457 122.135-108.601l0.054-0.573 4.693-41.984c37.931-6.4 76.715-6.4 114.645 0l4.693 41.984c7.054 61.807 59.059 109.374 122.174 109.374 17.821 0 34.756-3.792 50.042-10.614l-0.781 0.311 38.613-16.896c23.414 28.272 42.812 60.99 56.645 96.49l0.827 2.411-34.048 25.088c-30.545 22.63-50.129 58.554-50.129 99.051s19.584 76.42 49.797 98.816l0.332 0.235 33.963 25.045c-14.675 37.897-34.086 70.6-57.988 99.447l0.473-0.588-38.229-16.768c-14.53-6.527-31.495-10.328-49.347-10.328-63.18 0-115.239 47.616-122.248 108.919l-0.053 0.567-4.693 41.643c-16.923 2.915-36.581 4.72-56.609 4.989l-0.266 0.003zM512 608c88.366 0 160-71.634 160-160s-71.634-160-160-160v0c-88.366 0-160 71.634-160 160s71.634 160 160 160v0zM512 544c-53.019 0-96-42.981-96-96s42.981-96 96-96v0c53.019 0 96 42.981 96 96s-42.981 96-96 96v0z" />
<glyph unicode="&#xe90f;" glyph-name="edit" d="M897.28 833.28c27.626-27.626 44.712-65.791 44.712-107.947s-17.087-80.32-44.712-107.947l-510.635-510.72c-11.483-11.488-25.862-20.079-41.948-24.585l-0.676-0.162-218.283-59.52c-2.513-0.709-5.398-1.116-8.379-1.116-17.673 0-32 14.327-32 32 0 2.993 0.411 5.89 1.179 8.638l-0.054-0.225 59.52 218.283c4.667 16.762 13.259 31.141 24.746 42.624l510.635 510.678c27.626 27.626 65.791 44.712 107.947 44.712s80.32-17.087 107.947-44.712v0zM640 701.44l-424.021-424.107c-3.824-3.829-6.683-8.622-8.181-13.983l-0.054-0.225-44.8-164.267 164.267 44.8c5.56 1.59 10.323 4.476 14.12 8.317l424.11 424.024-125.44 125.44zM726.613 788.053l-41.387-41.387 125.44-125.44 41.387 41.387c15.676 15.986 25.35 37.907 25.35 62.086 0 48.99-39.714 88.704-88.704 88.704-24.18 0-46.1-9.675-62.101-25.365l0.014 0.014z" />
<glyph unicode="&#xe910;" glyph-name="add" d="M501.333 832c16.138-0.001 29.485-11.947 31.682-27.478l0.020-0.17 0.299-4.352 0.043-309.333h309.461c17.669-0.006 31.99-14.33 31.99-32 0-16.135-11.941-29.48-27.468-31.682l-0.17-0.020-4.352-0.299h-309.461l0.085-309.333c-0.030-17.651-14.345-31.948-32-31.948-16.135 0-29.481 11.941-31.682 27.468l-0.020 0.17-0.299 4.352-0.085 309.291h-309.291c-17.669 0.006-31.99 14.33-31.99 32 0 16.135 11.941 29.48 27.468 31.682l0.17 0.020 4.352 0.299h309.333l-0.085 309.333c0 17.673 14.327 32 32 32v0z" />
<glyph unicode="&#xe911;" glyph-name="emoji-hand" d="M394.027 882.261c6.784 2.005 14.080 3.072 21.973 3.072 46.763 0 74.496-38.4 74.496-74.667v-156.715c12.459 4.309 26.88 7.339 43.008 7.339 59.648 0.043 106.496-43.904 106.496-106.624 0-0.006 0-0.013 0-0.020 0-10.675-5.227-20.129-13.261-25.942l-0.093-0.064-73.301-52.437-40.704-35.499c-27.128-23.741-51.112-49.892-72.018-78.438l-0.942-1.349-25.6-35.2c-21.562-29.442-55.993-48.353-94.843-48.384h-70.064c-0.268-0.002-0.585-0.004-0.902-0.004-41.339 0-77.483 22.244-97.115 55.416l-0.287 0.523c-12.942 21.655-26.862 48.277-39.423 75.651l-2.262 5.501c-12.16 27.776-23.851 60.288-23.851 86.912v256c0 36.437 28.075 74.667 74.667 74.667 4.693 0 9.216-0.427 13.483-1.109 8.235 29.056 33.835 54.443 71.851 54.443 7.765 0 15.104-1.109 21.931-3.115 12.927 21.192 35.92 35.125 62.167 35.125 0.435 0 0.868-0.004 1.301-0.011l-0.065 0.001c29.141 0 51.029-14.933 63.36-35.072zM322.987 850.347c-1.802-2.009-2.914-4.669-2.944-7.589v-192.091c0-17.673-14.327-32-32-32s-32 14.327-32 32v0 162.219c-0.261 2.051-1.156 3.857-2.479 5.252l0.004-0.004c-1.919 1.985-4.606 3.218-7.581 3.218-0.215 0-0.429-0.006-0.64-0.019l0.029 0.001c-4.053 0-6.272-1.408-7.68-2.987-1.826-2.030-2.954-4.72-2.987-7.673v-181.34c0-17.673-14.327-32-32-32s-32 14.327-32 32v0 128c-0.033 2.96-1.16 5.65-2.996 7.691l0.009-0.011c-1.451 1.579-3.669 2.987-7.68 2.987s-6.229-1.408-7.68-2.987c-1.826-2.030-2.954-4.72-2.987-7.673v-256.007c0-11.947 6.357-33.493 18.475-61.141 11.52-26.24 26.24-53.547 38.613-75.051 8.363-14.592 24.491-23.808 42.837-23.808h69.845c17.067 0 33.109 8.192 43.136 22.016l25.515 35.157c24.772 33.892 51.968 63.539 82.101 89.913l0.63 0.54 41.899 36.48c0.713 0.632 1.491 1.261 2.297 1.855l0.092 0.065 59.008 42.24c-5.291 17.408-20.309 27.733-40.363 27.733-27.179 0-46.507-17.067-52.992-22.827l-1.28-1.109c-5.547-4.742-12.805-7.628-20.736-7.628-17.67 0-31.994 14.321-32 31.99v212.908c-0.034 2.973-1.161 5.677-2.997 7.734l0.010-0.012c-1.365 1.579-3.499 2.944-7.509 2.944-4.053 0-6.272-1.408-7.68-2.987-1.83-2.028-2.958-4.72-2.987-7.674v-160.006c0-17.673-14.327-32-32-32s-32 14.327-32 32v0 192.085c-0.042 2.931-1.169 5.591-2.995 7.604l0.009-0.010c-1.451 1.579-3.669 2.987-7.68 2.987s-6.229-1.408-7.68-2.987zM554.667 320c23.564 0 42.667 19.103 42.667 42.667s-19.103 42.667-42.667 42.667v0c-23.564 0-42.667-19.103-42.667-42.667s19.103-42.667 42.667-42.667v0zM725.333 320c23.564 0 42.667 19.103 42.667 42.667s-19.103 42.667-42.667 42.667v0c-23.564 0-42.667-19.103-42.667-42.667s19.103-42.667 42.667-42.667v0zM640 21.333c-135.832 0.013-250.489 90.662-286.788 214.763l-0.529 2.112c22.58 4.934 42.474 14.002 59.785 26.439l-0.478-0.327c25.923-103.514 118.13-178.964 227.96-178.964 129.603 0 234.667 105.064 234.667 234.667 0 114.53-82.047 209.896-190.57 230.53l-1.465 0.232 0.085 3.883c0 22.741-4.565 43.819-12.8 62.507 151.61-15.666 268.837-142.73 268.837-297.173 0-164.949-133.718-298.667-298.667-298.667-0.013 0-0.026 0-0.040 0h0.002zM563.115 246.059c-5.831 6.054-14.007 9.814-23.061 9.814-17.674 0-32.001-14.327-32.001-32.001 0-8.619 3.408-16.443 8.949-22.197l-0.010 0.010c31.031-32.291 74.581-52.352 122.817-52.352 0.067 0 0.134 0 0.201 0h-0.011c0.057 0 0.124 0 0.191 0 48.236 0 91.787 20.061 122.763 52.296l0.054 0.057c5.532 5.744 8.94 13.567 8.94 22.187 0 17.674-14.327 32.001-32.001 32.001-9.054 0-17.23-3.76-23.052-9.804l-0.010-0.010c-19.369-20.184-46.569-32.725-76.698-32.725-0.066 0-0.132 0-0.198 0h0.010c-0.056 0-0.122 0-0.188 0-30.129 0-57.329 12.542-76.663 32.689l-0.035 0.036z" />
<glyph unicode="&#xe912;" glyph-name="home" d="M450.133 851.968c16.588 14.051 38.229 22.593 61.867 22.593s45.279-8.543 62.007-22.709l-0.14 0.116 288-242.859c21.632-18.261 34.133-45.099 34.133-73.387v-418.261c0-41.237-33.429-74.667-74.667-74.667v0h-149.333c-41.237 0-74.667 33.429-74.667 74.667v0 234.667c0 5.891-4.776 10.667-10.667 10.667v0h-149.333c-5.891 0-10.667-4.776-10.667-10.667v0-234.667c0-41.237-33.429-74.667-74.667-74.667v0h-149.333c-41.237 0-74.667 33.429-74.667 74.667v0 418.261c0 28.288 12.501 55.125 34.133 73.387l288 242.859zM532.608 803.029c-5.527 4.676-12.735 7.519-20.608 7.519s-15.081-2.843-20.655-7.558l0.047 0.039-288-242.816c-6.978-5.902-11.382-14.66-11.392-24.446v-418.263c0-5.888 4.779-10.667 10.667-10.667h149.333c5.891 0 10.667 4.776 10.667 10.667v0 234.667c0 41.259 33.451 74.667 74.667 74.667h149.333c41.216 0 74.667-33.408 74.667-74.667v-234.667c0-5.888 4.779-10.667 10.667-10.667h149.333c5.891 0 10.667 4.776 10.667 10.667v0 418.219c-0.010 9.788-4.414 18.546-11.345 24.409l-0.047 0.039-288 242.859z" />
<glyph unicode="&#xe913;" glyph-name="rename" d="M416 874.667h170.581c17.669-0.006 31.99-14.33 31.99-32 0-16.135-11.941-29.48-27.468-31.682l-0.17-0.020-4.352-0.299h-53.248v-725.333h53.12c16.138-0.001 29.485-11.947 31.682-27.478l0.020-0.17 0.299-4.352c-0.001-16.138-11.947-29.485-27.478-31.682l-0.17-0.020-4.352-0.299h-170.453c-17.669 0.006-31.99 14.33-31.99 32 0 16.135 11.941 29.48 27.468 31.682l0.17 0.020 4.352 0.299h53.333v725.333h-53.333c-16.138 0.001-29.485 11.947-31.682 27.478l-0.020 0.17-0.299 4.352c0.001 16.138 11.947 29.485 27.478 31.682l0.17 0.020 4.352 0.299zM778.496 746.795c76.554-0.073 138.594-62.113 138.667-138.66v-0.007l0.171-320.171c0-0.029 0-0.063 0-0.097 0-73.783-57.644-134.103-130.353-138.381l-0.378-0.018-7.936-0.213h-202.453v64h204.928c40.154 1.35 72.192 34.226 72.192 74.584 0 0.044 0 0.088 0 0.132v-0.007l-0.128 320.213c-0.073 41.238-33.507 74.642-74.75 74.667h-202.242v64h202.24zM426.667 746.795v-64h-202.667c-41.237 0-74.667-33.429-74.667-74.667v0-320.171c0-41.259 33.451-74.667 74.667-74.667h202.453v-64h-202.453c-76.583 0-138.667 62.083-138.667 138.667v0 320.171c0 76.583 62.083 138.667 138.667 138.667v0h202.667z" />
<glyph unicode="&#xe914;" glyph-name="heart-filled" d="M546.987 721.92l-34.987-35.072-35.157 35.157c-41.501 41.495-98.831 67.16-162.155 67.16-126.659 0-229.336-102.677-229.336-229.336 0-63.335 25.674-120.673 67.182-162.176l336.853-336.853c5.789-5.782 13.784-9.359 22.613-9.359s16.824 3.576 22.614 9.359l337.152 336.938c41.448 41.499 67.080 98.801 67.080 162.091 0 63.311-25.65 120.631-67.124 162.135l0.002-0.002c-41.545 41.572-98.954 67.287-162.368 67.287s-120.823-25.715-162.367-67.285l-0.001-0.001z" />
<glyph unicode="&#xe915;" glyph-name="star-filled" d="M460.288 827.605c21.12 42.837 82.176 42.837 103.296 0l100.608-203.819 224.981-32.683c47.232-6.869 66.091-64.939 31.915-98.261l-162.816-158.72 38.443-224c8.107-47.061-41.301-82.944-83.584-60.757l-201.216 105.813-201.173-105.813c-42.24-22.187-91.648 13.653-83.627 60.757l38.443 224-162.773 158.72c-34.176 33.28-15.317 91.392 31.915 98.261l224.981 32.683 100.608 203.819z" />
<glyph unicode="&#xe916;" glyph-name="delete" d="M512 885.333c0.003 0 0.006 0 0.009 0 73.822 0 134.17-57.686 138.427-130.44l0.018-0.376 0.213-7.851h224c17.669-0.006 31.99-14.33 31.99-32 0-16.135-11.941-29.48-27.468-31.682l-0.17-0.020-4.352-0.299h-33.963l-54.613-555.52c-5.805-57.077-51.771-101.765-108.917-105.539l-0.352-0.019-7.509-0.256h-314.624c-58.125 0.002-106.378 42.269-115.702 97.744l-0.096 0.688-0.981 7.424-54.656 555.477h-33.92c-16.138 0.001-29.485 11.947-31.682 27.478l-0.020 0.17-0.299 4.352c0.001 16.138 11.947 29.485 27.478 31.682l0.17 0.020 4.352 0.299h224c0 76.583 62.083 138.667 138.667 138.667v0zM776.405 682.667h-528.853l54.059-549.205c2.542-25.278 22.406-45.216 47.427-47.852l0.232-0.020 5.419-0.256h314.624c25.6 0 47.317 18.133 52.267 42.752l0.853 5.376 53.931 549.205zM586.667 565.333c16.138-0.001 29.485-11.947 31.682-27.478l0.020-0.17 0.299-4.352v-298.667c-0.006-17.669-14.33-31.99-32-31.99-16.135 0-29.48 11.941-31.682 27.468l-0.020 0.17-0.299 4.352v298.667c0 17.673 14.327 32 32 32v0zM437.333 565.333c16.138-0.001 29.485-11.947 31.682-27.478l0.020-0.17 0.299-4.352v-298.667c-0.006-17.669-14.33-31.99-32-31.99-16.135 0-29.48 11.941-31.682 27.468l-0.020 0.17-0.299 4.352v298.667c0 17.673 14.327 32 32 32v0zM512 821.333c-39.073-0.001-71.136-30.016-74.392-68.247l-0.019-0.276-0.256-6.144h149.333c0 41.237-33.429 74.667-74.667 74.667v0z" />
<glyph unicode="&#xe917;" glyph-name="folder-open" d="M853.333 554.581v32.085c0 53.019-42.981 96-96 96v0h-244.267l-101.547 84.48c-16.51 13.804-37.966 22.187-61.381 22.187-0.036 0-0.072 0-0.107 0h-168.698c-53.019 0-96-42.981-96-96v0l-0.171-490.667c0-53.019 42.981-96 96-96v0h606.891c0.005 0 0.011 0 0.017 0 34.797 0 64.035 23.803 72.318 56.016l0.113 0.518 74.667 298.581c1.42 5.444 2.235 11.693 2.235 18.133 0 41.237-33.429 74.667-74.667 74.667-0.006 0-0.012 0-0.018 0h-9.386zM181.333 725.333h168.789c0.011 0 0.024 0 0.037 0 7.797 0 14.943-2.789 20.494-7.423l-0.051 0.041 110.421-91.904c5.5-4.593 12.646-7.381 20.443-7.381 0.013 0 0.026 0 0.039 0h255.827c17.673 0 32-14.327 32-32v0-32.085h-515.243c-0.003 0-0.007 0-0.011 0-44.746 0-82.342-30.614-92.985-72.039l-0.145-0.665-31.744-127.061 0.128 338.517c0 17.673 14.327 32 32 32v0zM243.072 466.347c3.594 14.022 16.114 24.223 31.017 24.235h588.631c5.878-0.017 10.637-4.786 10.637-10.667 0-0.909-0.114-1.791-0.328-2.634l0.016 0.074-74.667-298.624c-1.202-4.663-5.366-8.055-10.324-8.064h-605.228c-0.004 0-0.008 0-0.013 0-5.891 0-10.667 4.776-10.667 10.667 0 0.909 0.114 1.791 0.328 2.634l-0.016-0.074 70.613 282.453z" />
<glyph unicode="&#xe918;" glyph-name="data-pie" d="M437.333 778.667c17.673 0 32-14.327 32-32v0-341.333h341.333c16.138-0.001 29.485-11.947 31.682-27.478l0.020-0.17 0.299-4.352c0-212.053-171.947-362.667-384-362.667-212.077 0-384 171.923-384 384v0c0 212.053 150.613 384 362.667 384zM405.333 713.088l-8.917-1.024c-157.44-20.053-257.749-154.539-257.749-317.397 0-176.731 143.269-320 320-320v0c162.859 0 297.301 100.352 317.44 257.749l0.939 8.917h-339.712c-16.138 0.001-29.485 11.947-31.682 27.478l-0.020 0.17-0.299 4.352v339.755zM565.333 885.333c212.077 0 384-171.923 384-384v0c0-17.673-14.327-32-32-32v0h-352c-17.673 0-32 14.327-32 32v0 352c0 17.673 14.327 32 32 32v0zM597.333 819.755v-286.421h286.379l-0.981 8.917c-19.186 144.317-132.162 257.294-274.844 276.302l-1.636 0.178-8.917 1.024z" />
<glyph unicode="&#xe919;" glyph-name="folder-arrow-right" d="M746.667 490.667c129.603 0 234.667-105.064 234.667-234.667s-105.064-234.667-234.667-234.667v0c-129.603 0-234.667 105.064-234.667 234.667s105.064 234.667 234.667 234.667v0zM350.165 789.333c19.627 0 38.741-6.016 54.784-17.152l6.656-5.12 101.333-84.395h329.728c0.009 0 0.020 0 0.031 0 48.324 0 88.308-35.705 95.012-82.172l0.061-0.516 0.683-6.741 0.213-6.571v-130.56c-18.471 17.758-39.507 33.049-62.45 45.223l-1.507 0.729-0.043 84.608c-0.001 16.138-11.947 29.485-27.478 31.682l-0.17 0.020-4.352 0.299h-329.771l-101.291-84.437c-14.428-12.072-32.682-20.020-52.708-21.819l-0.37-0.027-8.363-0.384-200.832 0.043v-309.376c0-16.213 12.032-29.611 27.648-31.701l4.352-0.299h301.397c7.339-22.784 17.579-44.288 30.251-64.043l-331.648 0.043c-0.004 0-0.008 0-0.012 0-50.707 0-92.232 39.314-95.758 89.124l-0.017 0.305-0.213 6.571v490.667c0 0.004 0 0.008 0 0.012 0 50.707 39.314 92.232 89.124 95.758l0.305 0.017 6.571 0.213h168.832zM759.125 382.080l-3.243-1.877-2.987-2.432-2.432-2.987c-2.363-3.385-3.775-7.586-3.775-12.117s1.413-8.732 3.821-12.187l-0.046 0.070 2.432-2.987 70.229-70.229h-225.792l-3.84-0.341c-8.734-1.638-15.514-8.418-17.131-17.020l-0.021-0.132-0.341-3.84 0.341-3.84c1.638-8.734 8.418-15.514 17.020-17.131l0.132-0.021 3.84-0.341h225.792l-70.229-70.229-2.432-2.987c-2.333-3.371-3.727-7.546-3.727-12.047 0-11.782 9.551-21.333 21.333-21.333 4.501 0 8.677 1.394 12.118 3.774l-0.071-0.047 2.987 2.432 107.861 108.032 1.963 2.688 1.451 2.901 0.896 2.688 0.64 3.499 0.085 1.963-0.128 2.261-0.597 3.2-1.28 3.541-1.792 3.157-1.92 2.389-107.179 107.221-2.987 2.432c-3.392 2.376-7.604 3.797-12.148 3.797-3.206 0-6.247-0.707-8.975-1.974l0.132 0.055zM350.165 725.333h-168.832c-16.138-0.001-29.485-11.947-31.682-27.478l-0.020-0.17-0.299-4.352v-117.291l200.832-0.043c6.243 0.008 12.066 1.802 16.986 4.899l-0.133-0.078 3.627 2.56 80.683 67.328-80.64 67.2c-4.403 3.694-9.887 6.239-15.914 7.105l-0.171 0.020-4.437 0.299z" />
<glyph unicode="&#xe91a;" glyph-name="open" d="M266.667 768c-41.237 0-74.667-33.429-74.667-74.667v0-490.667c0-41.216 33.408-74.667 74.667-74.667h490.667c41.237 0 74.667 33.429 74.667 74.667v0 170.667c0 17.673 14.327 32 32 32s32-14.327 32-32v0-170.667c0-76.583-62.083-138.667-138.667-138.667v0h-490.667c-76.583 0-138.667 62.083-138.667 138.667v0 490.667c0 76.583 62.083 138.667 138.667 138.667v0h170.667c17.673 0 32-14.327 32-32s-14.327-32-32-32v0h-170.667zM554.667 800c0 17.673 14.327 32 32 32v0h277.333c17.673 0 32-14.327 32-32v0-277.333c0-17.673-14.327-32-32-32s-32 14.327-32 32v0 200.107l-222.72-222.72c-5.699-5.321-13.376-8.588-21.815-8.588-17.673 0-32 14.327-32 32 0 8.44 3.267 16.116 8.606 21.834l-0.017-0.019 222.72 222.72h-200.107c-17.673 0-32 14.327-32 32v0z" />
<glyph unicode="&#xe91b;" glyph-name="tag-dismiss" d="M842.667 874.667c53.019 0 96-42.981 96-96v0-233.045c-0.002-38.291-15.524-72.956-40.619-98.048l-1.109-1.109c-17.551 11.52-37.716 21.503-59.075 28.938l-1.939 0.587 16.853 16.853c13.515 13.505 21.877 32.164 21.888 52.777v233.047c0 17.673-14.327 32-32 32v0h-233.216c-19.797 0-38.827-7.893-52.821-21.888l-363.179-363.648c-13.159-13.45-21.278-31.876-21.278-52.199 0-20.643 8.377-39.329 21.917-52.845l190.337-190.038c13.538-13.476 32.207-21.807 52.823-21.807 17.68 0 33.93 6.128 46.74 16.375l-0.149-0.115c7.040-20.779 16.469-40.405 27.904-58.624-21.084-13.574-46.83-21.64-74.46-21.64-38.267 0-72.921 15.472-98.046 40.503l0.004-0.004-190.379 190.037c-25.142 25.102-40.696 59.801-40.696 98.133 0 38.247 15.485 72.878 40.527 97.965l362.665 363.091c25.098 25.122 59.784 40.661 98.099 40.661 0.012 0 0.024 0 0.037 0h233.171zM725.333 725.248c35.346 0 64-28.654 64-64s-28.654-64-64-64v0c-35.346 0-64 28.654-64 64s28.654 64 64 64v0zM746.667-21.333c129.603 0 234.667 105.064 234.667 234.667s-105.064 234.667-234.667 234.667v0c-129.603 0-234.667-105.064-234.667-234.667s105.064-234.667 234.667-234.667v0zM646.229 313.771c3.862 3.872 9.203 6.267 15.104 6.267s11.242-2.396 15.104-6.267v0l70.229-70.272 70.229 70.272c3.865 3.865 9.206 6.256 15.104 6.256 11.797 0 21.36-9.563 21.36-21.36 0-5.898-2.391-11.239-6.256-15.104l-70.272-70.229 70.272-70.229c3.865-3.865 6.256-9.206 6.256-15.104 0-11.797-9.563-21.36-21.36-21.36-5.898 0-11.239 2.391-15.104 6.256l-70.229 70.272-70.229-70.272c-3.865-3.865-9.206-6.256-15.104-6.256-11.797 0-21.36 9.563-21.36 21.36 0 5.898 2.391 11.239 6.256 15.104l70.272 70.229-70.272 70.229c-3.872 3.862-6.267 9.203-6.267 15.104s2.396 11.242 6.267 15.104v0z" />
<glyph unicode="&#xe91c;" glyph-name="warning" d="M465.493 841.301c13.407 7.561 29.435 12.015 46.503 12.015 33.526 0 63.038-17.186 80.207-43.228l0.223-0.36 3.541-5.888 331.051-597.717c7.552-13.4 12.001-29.42 12.001-46.478 0-50.696-39.297-92.215-89.092-95.755l-0.307-0.017-6.571-0.256h-662.016c-53.019 0-96 42.981-96 96 0 14.663 3.288 28.559 9.166 40.989l-0.248-0.584 3.072 6.101 330.965 597.717c8.886 15.836 21.625 28.575 36.979 37.212l0.482 0.249zM871.040 175.147l-331.093 597.675c-5.572 9.891-16.006 16.461-27.974 16.461-10.392 0-19.627-4.954-25.473-12.628l-0.057-0.078-2.432-3.755-330.965-597.675c-2.531-4.476-4.022-9.829-4.022-15.531 0-16.248 12.11-29.668 27.796-31.726l0.162-0.017 4.053-0.256h662.016c17.663 0.014 31.975 14.335 31.975 32 0 4.272-0.837 8.349-2.357 12.075l0.077-0.214-1.707 3.669zM512 277.248c0.402 0.014 0.874 0.021 1.348 0.021 23.541 0 42.624-19.083 42.624-42.624s-19.083-42.624-42.624-42.624c-0.474 0-0.947 0.008-1.417 0.023l0.069-0.002c-22.953 0.749-41.276 19.536-41.276 42.603s18.322 41.853 41.207 42.601l0.069 0.002zM511.787 597.333c0.014 0 0.031 0 0.047 0 16.123 0 29.461-11.924 31.677-27.435l0.020-0.171 0.299-4.352 0.171-192.085c0.001-0.111 0.002-0.241 0.002-0.372 0-17.673-14.327-32-32-32-16.255 0-29.679 12.12-31.729 27.816l-0.017 0.161-0.256 4.352-0.171 192.085c0 17.673 14.327 32 32 32v0z" />
<glyph unicode="&#xe91d;" glyph-name="document-header-dismiss" d="M757.163 874.667c50.694-0.017 92.202-39.324 95.727-89.124l0.017-0.306 0.256-6.571v-309.248c-18.481 7.931-40.011 14.179-62.441 17.717l-1.559 0.203v291.328c-0.001 16.138-11.947 29.485-27.478 31.682l-0.17 0.020-4.352 0.299h-490.496c-16.138-0.001-29.485-11.947-31.682-27.478l-0.020-0.17-0.299-4.352v-661.12c0-16.213 12.032-29.568 27.648-31.701l4.309-0.256h233.941c12.203-23.509 27.733-45.056 45.867-64h-279.851c-50.649 0.037-92.117 39.291-95.684 89.035l-0.018 0.309-0.213 6.613v661.12c0 0.004 0 0.010 0 0.015 0 50.692 39.291 92.208 89.080 95.754l0.307 0.018 6.613 0.213h490.539zM362.837 746.496c-34.628-0.922-62.348-29.213-62.348-63.979s27.72-63.056 62.262-63.977l0.085-0.002h298.581c35.346 0 64 28.654 64 64s-28.654 64-64 64v0h-298.581zM981.333 213.333c0-129.603-105.064-234.667-234.667-234.667s-234.667 105.064-234.667 234.667v0c0 129.603 105.064 234.667 234.667 234.667s234.667-105.064 234.667-234.667v0zM676.437 313.771c-3.865 3.865-9.206 6.256-15.104 6.256-11.797 0-21.36-9.563-21.36-21.36 0-5.898 2.391-11.239 6.256-15.104v0l70.272-70.229-70.272-70.229c-3.865-3.865-6.256-9.206-6.256-15.104 0-11.797 9.563-21.36 21.36-21.36 5.898 0 11.239 2.391 15.104 6.256l70.229 70.272 70.229-70.272c3.865-3.865 9.206-6.256 15.104-6.256 11.797 0 21.36 9.563 21.36 21.36 0 5.898-2.391 11.239-6.256 15.104l-70.272 70.229 70.272 70.229c3.865 3.865 6.256 9.206 6.256 15.104 0 11.797-9.563 21.36-21.36 21.36-5.898 0-11.239-2.391-15.104-6.256l-70.229-70.272-70.229 70.272z" />
<glyph unicode="&#xe91e;" glyph-name="calendar-clock" d="M896 693.333c0 76.583-62.083 138.667-138.667 138.667v0h-490.667c-76.583 0-138.667-62.083-138.667-138.667v0-490.667c0-76.583 62.083-138.667 138.667-138.667v0h246.272c-11.99 18.411-22.243 39.591-29.69 62.050l-0.56 1.95h-216.021c-41.237 0-74.667 33.429-74.667 74.667v0 394.667h640v-120.021c24.409-8.007 45.589-18.26 65.074-30.904l-1.074 0.653v246.272zM266.667 768h490.667c41.216 0 74.667-33.451 74.667-74.667v-32h-640v32c0 41.216 33.451 74.667 74.667 74.667zM981.333 213.333c0 129.603-105.064 234.667-234.667 234.667s-234.667-105.064-234.667-234.667v0c0-129.603 105.064-234.667 234.667-234.667s234.667 105.064 234.667 234.667v0zM746.667 213.333h85.333c11.782 0 21.333-9.551 21.333-21.333s-9.551-21.333-21.333-21.333v0h-106.667c-0.001 0-0.002 0-0.003 0-11.647 0-21.114 9.334-21.33 20.929v128.447c0 11.782 9.551 21.333 21.333 21.333s21.333-9.551 21.333-21.333v0-106.709z" />
<glyph unicode="&#xe91f;" glyph-name="money" d="M448 618.667c-70.692 0-128-57.308-128-128s57.308-128 128-128v0c70.692 0 128 57.308 128 128s-57.308 128-128 128v0zM384 490.667c0 35.346 28.654 64 64 64s64-28.654 64-64v0c0-35.346-28.654-64-64-64s-64 28.654-64 64v0zM85.333 650.667c0 53.019 42.981 96 96 96v0h533.333c53.019 0 96-42.981 96-96v0-320c0-53.019-42.981-96-96-96v0h-533.333c-53.019 0-96 42.981-96 96v0 320zM181.333 682.667c-17.673 0-32-14.327-32-32v0-32h32c17.673 0 32 14.327 32 32v0 32h-32zM149.333 426.667h32c53.019 0 96-42.981 96-96v0-32h341.333v32c0 53.019 42.981 96 96 96v0h32v128h-32c-53.019 0-96 42.981-96 96v0 32h-341.333v-32c0-53.019-42.981-96-96-96v0h-32v-128zM746.667 618.667v32c0 17.673-14.327 32-32 32v0h-32v-32c0-17.664 14.336-32 32-32h32zM746.667 362.667h-32c-17.673 0-32-14.327-32-32v0-32h32c17.673 0 32 14.327 32 32v0 32zM149.333 330.667c0-17.664 14.336-32 32-32h32v32c0 17.673-14.327 32-32 32v0h-32v-32zM187.776 170.667c22.533-38.529 63.705-64 110.827-64 0.023 0 0.045 0 0.068 0h437.33c111.93 0 202.667 90.737 202.667 202.667v0 224c0 47.36-25.728 88.747-64 110.891v-334.891c0-76.583-62.083-138.667-138.667-138.667v0h-548.224z" />
<glyph unicode="&#xe920;" glyph-name="eye-show" d="M512 575.787c94.257 0 170.667-76.41 170.667-170.667s-76.41-170.667-170.667-170.667v0c-94.257 0-170.667 76.41-170.667 170.667s76.41 170.667 170.667 170.667v0zM512 511.787c-58.91 0-106.667-47.756-106.667-106.667s47.756-106.667 106.667-106.667v0c58.91 0 106.667 47.756 106.667 106.667s-47.756 106.667-106.667 106.667v0zM512 725.333c196.821 0 366.763-134.4 413.909-322.731 0.611-2.338 0.962-5.021 0.962-7.787 0-17.674-14.328-32.002-32.002-32.002-14.909 0-27.436 10.195-30.991 23.993l-0.049 0.222c-40.945 158.821-182.905 274.273-351.829 274.273-168.986 0-310.988-115.536-351.321-271.926l-0.551-2.517c-3.84-13.677-16.199-23.537-30.861-23.537-17.673 0-32 14.327-32 32 0 2.49 0.284 4.914 0.823 7.241l-0.042-0.216c48.048 186.996 215.119 322.974 413.951 322.987h0.001z" />
<glyph unicode="&#xe921;" glyph-name="dismiss" d="M187.605 765.696l3.115 3.584c5.791 5.792 13.792 9.375 22.63 9.375 7.158 0 13.767-2.35 19.098-6.321l-0.085 0.060 3.584-3.115 276.053-276.011 276.053 276.053c5.826 6.021 13.98 9.758 23.007 9.758 17.673 0 32-14.327 32-32 0-9.037-3.746-17.2-9.771-23.019l-276.020-276.062 276.053-276.053c5.778-5.789 9.351-13.78 9.351-22.605 0-7.169-2.357-13.787-6.339-19.121l0.060 0.084-3.115-3.584c-5.791-5.792-13.792-9.375-22.63-9.375-7.158 0-13.767 2.35-19.098 6.321l0.085-0.060-3.584 3.115-276.053 276.011-276.053-276.053c-5.747-5.552-13.584-8.972-22.22-8.972-17.673 0-32 14.327-32 32 0 8.646 3.429 16.492 9.002 22.251l-0.008-0.009 276.011 276.053-276.053 276.053c-5.778 5.789-9.351 13.78-9.351 22.605 0 7.169 2.357 13.787 6.339 19.121l-0.060-0.084z" />
<glyph unicode="&#xe922;" glyph-name="chevron-down" d="M180.053 598.613c5.789 5.782 13.784 9.359 22.613 9.359s16.824-3.576 22.614-9.359v0l286.72-286.72 286.72 286.72c5.858 6.274 14.178 10.185 23.412 10.185 17.673 0 32-14.327 32-32 0-9.234-3.911-17.554-10.166-23.394l-0.019-0.017-309.333-309.333c-5.789-5.782-13.784-9.359-22.613-9.359s-16.824 3.576-22.614 9.359v0l-309.333 309.333c-5.782 5.789-9.359 13.784-9.359 22.613s3.576 16.824 9.359 22.614v0z" />
<glyph unicode="&#xe923;" glyph-name="arrow-undo" d="M202.667 874.667c16.138-0.001 29.485-11.947 31.682-27.478l0.020-0.17 0.299-4.352v-242.773l195.157 194.56c49.493 49.496 117.868 80.11 193.394 80.11 71.649 0 136.863-27.552 185.625-72.639l-0.182 0.166 7.936-7.68c49.466-49.488 80.059-117.843 80.059-193.344s-30.594-143.856-80.060-193.345l-377.428-377.172c-5.791-5.78-13.785-9.354-22.613-9.354-17.679 0-32.010 14.331-32.010 32.010 0 8.85 3.591 16.861 9.396 22.656v0l377.387 377.088c37.68 37.872 60.973 90.089 60.973 147.747 0 115.7-93.793 209.493-209.493 209.493-53.986 0-103.202-20.42-140.346-53.958l0.184 0.163-7.595-7.253-195.072-194.475h242.688c16.138-0.001 29.485-11.947 31.682-27.478l0.020-0.17 0.299-4.352c-0.001-16.138-11.947-29.485-27.478-31.682l-0.17-0.020-4.352-0.299h-320c-16.138 0.001-29.485 11.947-31.682 27.478l-0.020 0.17-0.299 4.352v320c0 17.673 14.327 32 32 32v0z" />
<glyph unicode="&#xe924;" glyph-name="arrow-redo" d="M821.333 874.667c-16.138-0.001-29.485-11.947-31.682-27.478l-0.020-0.17-0.299-4.352v-242.773l-195.157 194.56c-49.491 49.483-117.858 80.089-193.374 80.089-71.639 0-136.844-27.544-185.604-72.619l0.183 0.167-7.936-7.68c-49.466-49.488-80.059-117.843-80.059-193.344s30.594-143.856 80.060-193.345l377.386-377.172c5.791-5.78 13.785-9.354 22.613-9.354 17.679 0 32.010 14.331 32.010 32.010 0 8.85-3.591 16.861-9.396 22.656v0l-377.387 377.088c-37.68 37.872-60.973 90.089-60.973 147.747 0 115.7 93.793 209.493 209.493 209.493 53.986 0 103.202-20.42 140.346-53.958l-0.184 0.163 7.595-7.253 195.072-194.475h-242.688c-16.138-0.001-29.485-11.947-31.682-27.478l-0.020-0.17-0.299-4.352c0-16.213 12.032-29.611 27.648-31.701l4.352-0.299h320c16.138 0.001 29.485 11.947 31.682 27.478l0.020 0.17 0.299 4.352v320c0 17.673-14.327 32-32 32v0z" />
<glyph unicode="&#xe925;" glyph-name="color" d="M163.797 710.059c125.44 167.083 385.28 215.68 570.197 100.693 182.613-113.493 249.771-331.819 174.933-536.619-70.613-193.408-256.683-269.995-390.784-172.715-50.219 36.437-69.717 82.133-79.104 156.331l-4.523 42.112-1.92 16.981c-5.248 39.851-13.269 57.685-30.080 67.072-22.827 12.715-38.059 13.013-68.053 1.408l-14.976-6.229-7.637-3.328c-43.264-18.773-72.021-25.387-108.416-17.749l-8.533 2.005-6.997 2.005c-118.997 36.864-136.619 198.272-24.107 348.032zM205.781 423.509l5.248-1.579 5.717-1.28c18.731-3.712 34.731-0.64 61.312 10.325l25.685 10.965c51.285 21.035 84.693 23.040 129.963-2.133 39.125-21.845 54.4-55.381 62.165-113.493l2.261-19.584 2.347-22.699 2.005-18.005c7.339-58.069 20.693-89.173 53.248-112.811 97.067-70.4 236.117-13.184 293.12 142.891 64.683 177.152 7.424 363.264-148.651 460.331-156.8 97.451-379.691 55.723-485.248-84.779-88.533-117.888-77.653-225.28-9.173-248.149zM684.715 508.587c-1.386 4.522-2.184 9.721-2.184 15.105 0 29.455 23.878 53.333 53.333 53.333 25.019 0 46.014-17.227 51.771-40.467l0.077-0.367c0.944-3.754 1.486-8.064 1.486-12.5 0-29.455-23.878-53.333-53.333-53.333-24.071 0-44.417 15.946-51.051 37.851l-0.098 0.378zM705.792 359.765c-1.154 4.14-1.817 8.894-1.817 13.803 0 29.457 23.88 53.337 53.337 53.337 24.548 0 45.223-16.584 51.432-39.16l0.088-0.374c1.154-4.14 1.817-8.894 1.817-13.803 0-29.457-23.88-53.337-53.337-53.337-24.548 0-45.223 16.584-51.432 39.16l-0.088 0.374zM600.32 636.715c-1.154 4.14-1.817 8.894-1.817 13.803 0 29.457 23.88 53.337 53.337 53.337 24.548 0 45.223-16.584 51.432-39.16l0.088-0.374c1.154-4.14 1.817-8.894 1.817-13.803 0-29.457-23.88-53.337-53.337-53.337-24.548 0-45.223 16.584-51.432 39.16l-0.088 0.374zM599.125 252.8c-1.386 4.522-2.184 9.721-2.184 15.105 0 29.455 23.878 53.333 53.333 53.333 25.019 0 46.014-17.227 51.771-40.467l0.077-0.367c0.944-3.754 1.486-8.064 1.486-12.5 0-29.455-23.878-53.333-53.333-53.333-24.071 0-44.417 15.946-51.051 37.851l-0.098 0.378zM449.92 678.187c-1.226 4.264-1.931 9.161-1.931 14.223 0 29.455 23.878 53.333 53.333 53.333 24.715 0 45.503-16.811 51.554-39.621l0.084-0.372c1.077-4.003 1.695-8.599 1.695-13.34 0-29.455-23.878-53.333-53.333-53.333-24.393 0-44.962 16.376-51.311 38.735l-0.091 0.376z" />
<glyph unicode="&#xe926;" glyph-name="chrome-maxmize" d="M226.133 42.667c-64 0-119.467 55.467-119.467 119.467v571.733c0 64 55.467 119.467 119.467 119.467h571.733c64 0 119.467-55.467 119.467-119.467v-571.733c0-64-55.467-119.467-119.467-119.467h-571.733zM793.6 123.733c21.333 0 38.4 17.067 38.4 38.4v567.467c0 21.333-17.067 38.4-38.4 38.4h-563.2c-21.333 0-38.4-17.067-38.4-38.4v-567.467c0-21.333 17.067-38.4 38.4-38.4h563.2z" />
<glyph unicode="&#xe927;" glyph-name="chrome-close" d="M512 392.533l-337.067-337.067c-8.533-8.533-17.067-12.8-29.867-12.8-21.333 0-42.667 17.067-42.667 42.667 0 12.8 4.267 21.333 12.8 29.867l337.067 337.067-332.8 332.8c-8.533 8.533-12.8 17.067-12.8 29.867 0 21.333 17.067 38.4 42.667 38.4 12.8 0 21.333-4.267 29.867-12.8l337.067-337.067 337.067 337.067c8.533 8.533 17.067 12.8 29.867 12.8 21.333 0 38.4-17.067 38.4-38.4 0-12.8-4.267-21.333-12.8-29.867l-341.333-337.067 337.067-337.067c8.533-8.533 12.8-17.067 12.8-29.867 0-21.333-17.067-42.667-38.4-42.667-12.8 0-21.333 4.267-29.867 12.8l-337.067 341.333z" />
<glyph unicode="&#xe928;" glyph-name="chrome-minimize" d="M166.4 418.133c-21.333 0-38.4 17.067-38.4 38.4s17.067 38.4 38.4 38.4h691.2c21.333 0 38.4-17.067 38.4-38.4s-17.067-38.4-38.4-38.4h-691.2z" />
<glyph unicode="&#xe929;" glyph-name="chrome-restore" d="M823.467 588.8c0 85.333-72.533 153.6-153.6 153.6h-384c17.067 46.933 59.733 76.8 110.933 76.8h273.067c128 0 234.667-102.4 234.667-234.667v-273.067c0-51.2-29.867-93.867-76.8-110.933v388.267zM238.933 42.667c-59.733 0-115.2 55.467-115.2 115.2v392.533c0 59.733 51.2 115.2 115.2 115.2h392.533c59.733 0 115.2-51.2 115.2-115.2v-392.533c0-59.733-51.2-115.2-115.2-115.2h-392.533zM627.2 119.467c21.333 0 38.4 17.067 38.4 38.4v388.267c0 21.333-17.067 38.4-38.4 38.4h-388.267c-21.333 0-38.4-17.067-38.4-38.4v-388.267c0-21.333 17.067-38.4 38.4-38.4h388.267z" />
</font>
</defs>
</svg>
